<svg id="svg" version="1.1" xmlns="http://www.w3.org/2000/svg" xmlns:xlink="http://www.w3.org/1999/xlink" width="1140" height="787" viewBox="0, 0, 400,301.0438413361169"><g id="svgg"><path id="path0" d="M199.928 143.599 L 199.849 169.729 201.958 169.814 C 207.581 170.040,214.239 174.287,216.510 179.097 C 216.893 179.908,217.330 180.802,217.481 181.084 C 220.438 186.582,217.679 196.209,211.854 200.716 C 210.096 202.076,210.098 202.070,210.880 206.210 C 211.040 207.058,211.360 209.227,211.591 211.030 C 211.821 212.832,212.296 216.340,212.645 218.825 C 213.275 223.318,213.673 226.211,214.572 232.831 C 214.831 234.736,215.116 236.803,215.205 237.425 L 215.369 238.554 207.684 238.554 L 200.000 238.554 200.000 264.763 L 200.000 290.972 250.527 290.893 C 306.161 290.805,300.703 290.982,304.741 289.137 C 305.443 288.817,306.096 288.554,306.193 288.554 C 306.289 288.554,306.557 288.385,306.788 288.178 C 307.018 287.971,307.923 287.274,308.799 286.631 C 310.305 285.524,312.264 283.367,313.134 281.858 C 314.213 279.987,315.060 277.969,315.240 276.842 C 315.350 276.153,315.558 275.516,315.702 275.427 C 316.083 275.192,316.044 133.519,315.663 133.283 C 315.497 133.181,315.361 132.775,315.361 132.381 C 315.361 131.988,315.242 131.352,315.096 130.968 C 314.951 130.585,314.795 130.136,314.750 129.970 C 313.785 126.372,308.120 120.456,304.382 119.143 C 303.877 118.966,303.303 118.717,303.107 118.592 C 301.789 117.745,290.970 117.042,290.256 117.756 C 289.829 118.183,258.547 118.198,258.283 117.771 C 258.161 117.574,248.090 117.470,229.052 117.470 L 200.007 117.470 199.928 143.599 M118.599 117.997 C 122.948 118.044,130.064 118.044,134.413 117.997 C 138.761 117.950,135.203 117.911,126.506 117.911 C 117.809 117.911,114.251 117.950,118.599 117.997 M187.349 175.151 C 186.618 175.896,186.087 176.506,186.170 176.506 C 186.253 176.506,186.919 175.896,187.651 175.151 C 188.382 174.405,188.913 173.795,188.830 173.795 C 188.747 173.795,188.081 174.405,187.349 175.151 M189.829 208.133 C 189.829 208.712,189.891 208.950,189.967 208.660 C 190.042 208.370,190.042 207.895,189.967 207.605 C 189.891 207.316,189.829 207.553,189.829 208.133 " stroke="none" fill="#bb3424" fill-rule="evenodd"></path><path id="path1" d="M98.494 118.000 C 97.748 118.236,96.711 118.620,96.189 118.853 C 95.667 119.086,95.073 119.277,94.870 119.277 C 94.456 119.277,92.538 120.397,91.921 120.998 C 91.702 121.211,91.409 121.386,91.269 121.386 C 90.875 121.386,88.855 123.440,88.855 123.840 C 88.855 124.036,88.766 124.107,88.656 123.997 C 88.477 123.819,88.187 124.197,86.847 126.355 C 85.987 127.741,84.919 130.292,84.746 131.378 C 84.643 132.019,84.442 132.616,84.298 132.705 C 84.151 132.796,84.036 164.183,84.036 204.252 C 84.036 244.480,84.150 275.567,84.297 275.477 C 84.441 275.388,84.642 275.924,84.744 276.669 C 84.846 277.414,85.203 278.623,85.537 279.356 C 85.871 280.090,86.145 280.775,86.145 280.878 C 86.145 280.982,86.314 281.256,86.521 281.487 C 87.394 282.461,87.664 282.831,87.500 282.831 C 87.007 282.831,91.362 287.142,92.392 287.673 C 92.849 287.909,93.325 288.260,93.451 288.455 C 93.576 288.649,94.084 288.897,94.580 289.006 C 95.076 289.115,95.482 289.314,95.482 289.448 C 95.482 289.582,95.990 289.787,96.611 289.904 C 97.232 290.020,97.837 290.273,97.955 290.464 C 98.117 290.726,110.906 290.833,149.085 290.894 L 200.000 290.974 200.000 264.764 L 200.000 238.554 192.922 238.554 L 185.843 238.554 185.853 237.726 C 185.859 237.270,186.065 235.407,186.313 233.584 C 186.561 231.762,186.958 228.712,187.197 226.807 C 187.435 224.902,187.708 223.027,187.803 222.640 C 187.898 222.253,188.178 220.424,188.426 218.574 C 188.673 216.724,189.150 213.245,189.487 210.843 C 189.823 208.441,190.231 205.459,190.392 204.217 L 190.686 201.958 189.695 201.205 C 187.737 199.716,185.316 196.939,184.501 195.248 C 183.190 192.527,183.147 192.409,182.830 190.697 C 182.296 187.808,182.573 183.320,183.400 181.476 C 184.906 178.118,185.594 177.057,187.500 175.149 C 190.526 172.121,194.050 170.376,198.042 169.931 L 199.849 169.729 199.926 143.599 L 200.003 117.470 171.254 117.470 C 152.413 117.470,142.441 117.574,142.319 117.771 C 142.058 118.193,110.948 118.184,110.687 117.762 C 110.385 117.274,100.154 117.473,98.494 118.000 " stroke="none" fill="#f3543c" fill-rule="evenodd"></path><path id="path2" d="M191.877 10.447 C 190.970 10.519,190.089 10.692,189.919 10.832 C 189.748 10.971,188.694 11.182,187.575 11.301 C 186.457 11.419,185.542 11.611,185.542 11.728 C 185.542 11.845,184.498 12.102,183.222 12.301 C 181.946 12.499,180.828 12.775,180.737 12.914 C 180.647 13.053,180.030 13.266,179.367 13.387 C 178.705 13.509,177.993 13.748,177.786 13.919 C 177.579 14.090,177.410 14.129,177.410 14.006 C 177.410 13.883,177.240 13.918,177.033 14.085 C 176.826 14.252,176.216 14.482,175.678 14.598 C 175.139 14.713,174.699 14.904,174.699 15.022 C 174.699 15.140,174.089 15.400,173.343 15.599 C 172.598 15.798,171.988 16.083,171.988 16.230 C 171.988 16.378,171.514 16.588,170.934 16.697 C 170.354 16.806,169.880 17.009,169.880 17.150 C 169.880 17.290,169.515 17.496,169.071 17.608 C 168.626 17.719,167.364 18.344,166.267 18.996 C 165.170 19.647,164.111 20.181,163.913 20.181 C 163.716 20.181,163.554 20.282,163.553 20.407 C 163.553 20.531,162.807 21.034,161.897 21.526 C 160.986 22.017,160.241 22.509,160.241 22.619 C 160.241 22.729,159.834 22.987,159.337 23.193 C 158.840 23.399,158.434 23.690,158.434 23.841 C 158.434 23.992,158.207 24.202,157.930 24.309 C 157.652 24.415,157.212 24.695,156.951 24.931 C 156.690 25.167,155.798 25.862,154.970 26.475 C 153.211 27.777,151.997 28.815,149.879 30.824 C 149.034 31.625,147.632 32.912,146.762 33.683 C 145.892 34.454,145.181 35.174,145.181 35.282 C 145.181 35.391,144.266 36.432,143.148 37.597 C 140.178 40.689,139.226 41.778,138.819 42.541 C 138.619 42.916,138.288 43.358,138.084 43.524 C 137.430 44.054,133.133 50.079,133.133 50.466 C 133.133 50.671,132.929 50.917,132.681 51.013 C 132.432 51.108,132.229 51.393,132.229 51.647 C 132.229 51.901,132.110 52.108,131.964 52.108 C 131.819 52.108,131.522 52.549,131.304 53.087 C 131.087 53.626,130.731 54.175,130.515 54.307 C 130.298 54.440,130.120 54.745,130.120 54.985 C 130.120 55.225,130.018 55.422,129.893 55.422 C 129.768 55.422,129.473 55.862,129.239 56.401 C 129.005 56.939,128.735 57.447,128.639 57.530 C 128.167 57.936,125.602 62.950,125.602 63.465 C 125.602 63.680,125.469 63.855,125.307 63.855 C 125.144 63.855,124.926 64.194,124.822 64.608 C 124.719 65.023,124.513 65.361,124.365 65.361 C 124.217 65.361,124.096 65.522,124.096 65.718 C 124.096 65.914,123.832 66.626,123.510 67.299 C 122.667 69.057,122.184 70.297,122.241 70.557 C 122.267 70.681,122.160 70.783,122.002 70.783 C 121.843 70.783,121.625 71.258,121.516 71.837 C 121.407 72.417,121.209 72.892,121.075 72.892 C 120.941 72.892,120.737 73.332,120.622 73.870 C 120.508 74.409,120.158 75.418,119.845 76.113 C 119.533 76.808,119.277 77.587,119.277 77.845 C 119.277 78.103,119.155 78.313,119.006 78.313 C 118.857 78.313,118.568 79.025,118.364 79.895 C 118.160 80.764,117.891 81.611,117.766 81.777 C 117.642 81.943,117.440 82.553,117.319 83.133 C 117.197 83.712,117.016 84.322,116.916 84.488 C 116.816 84.654,116.699 84.925,116.656 85.090 C 116.614 85.256,116.406 86.092,116.196 86.948 C 115.985 87.804,115.717 88.600,115.601 88.717 C 115.484 88.833,115.220 89.929,115.015 91.151 C 114.810 92.373,114.548 93.373,114.434 93.373 C 114.320 93.373,114.130 94.153,114.012 95.105 C 113.894 96.058,113.677 96.984,113.531 97.162 C 113.384 97.341,113.099 98.798,112.897 100.400 C 112.694 102.002,112.435 103.313,112.320 103.313 C 112.205 103.313,112.014 104.431,111.896 105.798 C 111.777 107.165,111.579 108.419,111.456 108.584 C 111.333 108.750,111.231 109.292,111.229 109.789 C 111.227 110.286,111.146 111.032,111.050 111.446 C 110.954 111.860,110.791 113.453,110.686 114.985 L 110.497 117.771 126.433 117.771 L 142.368 117.771 142.701 117.093 C 142.885 116.721,143.125 115.196,143.234 113.705 C 143.344 112.214,143.540 110.858,143.668 110.693 C 143.797 110.527,144.076 109.002,144.289 107.304 C 144.502 105.606,144.768 104.217,144.880 104.217 C 144.992 104.217,145.255 103.064,145.465 101.655 C 145.675 100.246,145.955 99.026,146.088 98.944 C 146.220 98.862,146.422 98.117,146.536 97.289 C 146.650 96.461,146.848 95.783,146.977 95.783 C 147.106 95.783,147.370 94.974,147.565 93.984 C 147.759 92.995,148.115 91.809,148.355 91.349 C 148.595 90.889,148.792 90.283,148.793 90.003 C 148.794 89.723,148.920 89.416,149.073 89.322 C 149.226 89.227,149.445 88.711,149.559 88.174 C 149.673 87.638,150.030 86.589,150.352 85.843 C 150.673 85.098,151.053 84.217,151.195 83.886 C 151.337 83.554,151.872 82.391,152.383 81.301 C 152.895 80.212,153.313 79.105,153.313 78.842 C 153.313 78.579,153.415 78.318,153.539 78.263 C 153.738 78.175,154.340 77.126,156.007 73.960 C 156.265 73.470,156.645 72.885,156.852 72.658 C 157.059 72.432,157.311 71.918,157.412 71.515 C 157.513 71.113,157.700 70.783,157.827 70.783 C 157.955 70.783,158.235 70.359,158.450 69.840 C 158.665 69.322,159.228 68.475,159.702 67.958 C 160.176 67.441,160.639 66.723,160.731 66.362 C 160.823 66.001,161.089 65.633,161.322 65.543 C 161.556 65.454,161.747 65.241,161.747 65.070 C 161.747 64.899,161.956 64.522,162.211 64.232 C 164.411 61.735,165.045 60.966,165.052 60.794 C 165.063 60.516,172.049 53.602,173.067 52.861 C 173.522 52.530,174.042 52.123,174.221 51.958 C 174.401 51.792,175.124 51.265,175.828 50.787 C 176.532 50.309,177.108 49.828,177.108 49.718 C 177.108 49.608,177.583 49.347,178.163 49.137 C 178.742 48.928,179.217 48.629,179.217 48.474 C 179.217 48.320,179.399 48.193,179.623 48.193 C 179.846 48.193,180.331 47.930,180.702 47.609 C 181.072 47.288,181.770 46.938,182.254 46.832 C 182.737 46.726,183.133 46.520,183.133 46.375 C 183.133 46.230,183.607 46.023,184.187 45.914 C 184.767 45.805,185.241 45.612,185.241 45.484 C 185.241 45.357,185.883 45.091,186.668 44.893 C 187.452 44.695,188.232 44.423,188.400 44.288 C 188.567 44.153,189.518 43.881,190.512 43.682 C 191.506 43.484,192.571 43.188,192.879 43.024 C 193.186 42.860,194.948 42.648,196.794 42.553 C 198.640 42.458,200.242 42.240,200.354 42.068 C 200.493 41.853,200.681 41.854,200.956 42.072 C 201.176 42.246,202.801 42.466,204.568 42.561 C 206.335 42.657,208.029 42.867,208.333 43.028 C 208.637 43.189,209.671 43.480,210.630 43.673 C 211.590 43.867,212.742 44.216,213.190 44.450 C 213.639 44.684,214.301 44.877,214.662 44.878 C 215.023 44.879,215.515 45.076,215.755 45.316 C 215.996 45.557,216.581 45.849,217.057 45.965 C 217.533 46.082,217.989 46.258,218.072 46.357 C 218.155 46.455,219.036 46.943,220.030 47.440 C 221.024 47.937,221.946 48.513,222.078 48.720 C 222.211 48.927,222.449 49.096,222.608 49.096 C 223.026 49.096,226.080 51.243,228.741 53.407 C 230.312 54.685,234.935 59.343,235.693 60.412 C 236.024 60.879,236.532 61.469,236.822 61.722 C 237.112 61.975,237.349 62.325,237.349 62.500 C 237.349 62.675,237.587 63.042,237.877 63.315 C 238.166 63.589,238.539 63.992,238.705 64.211 C 240.231 66.228,240.663 66.868,240.663 67.116 C 240.663 67.275,240.866 67.483,241.114 67.579 C 241.363 67.674,241.566 67.897,241.566 68.075 C 241.566 68.434,242.752 70.206,243.223 70.553 C 243.424 70.700,243.424 70.777,243.223 70.783 C 243.022 70.789,243.022 70.866,243.223 71.014 C 243.584 71.279,244.248 72.439,245.374 74.774 C 245.834 75.727,246.317 76.506,246.448 76.506 C 246.579 76.506,246.687 76.691,246.687 76.916 C 246.687 77.142,247.217 78.358,247.866 79.618 C 248.514 80.879,249.135 82.321,249.245 82.823 C 249.355 83.324,249.559 83.735,249.699 83.735 C 249.838 83.735,250.046 84.175,250.161 84.714 C 250.276 85.252,250.625 86.261,250.938 86.956 C 251.250 87.651,251.506 88.431,251.506 88.688 C 251.506 88.946,251.620 89.157,251.759 89.157 C 251.899 89.157,252.185 89.936,252.395 90.889 C 252.606 91.841,252.886 92.756,253.019 92.922 C 253.151 93.087,253.355 93.733,253.471 94.356 C 253.587 94.979,253.793 95.557,253.929 95.641 C 254.064 95.724,254.338 96.807,254.538 98.047 C 254.738 99.287,255.006 100.301,255.132 100.301 C 255.259 100.301,255.457 101.114,255.572 102.108 C 255.688 103.102,255.882 103.916,256.005 103.916 C 256.128 103.916,256.204 104.328,256.174 104.831 C 256.144 105.334,256.218 105.807,256.337 105.881 C 256.457 105.955,256.650 107.033,256.767 108.277 C 256.883 109.521,257.090 110.607,257.226 110.691 C 257.363 110.775,257.571 112.166,257.689 113.781 C 257.807 115.396,258.028 116.954,258.179 117.244 C 258.437 117.736,259.522 117.771,274.436 117.771 L 290.418 117.771 290.203 114.834 C 290.086 113.219,289.890 111.762,289.768 111.596 C 289.647 111.431,289.375 109.497,289.163 107.298 C 288.952 105.100,288.675 103.237,288.547 103.158 C 288.419 103.079,288.219 102.065,288.103 100.905 C 287.986 99.745,287.795 98.795,287.678 98.795 C 287.562 98.795,287.286 97.575,287.065 96.084 C 286.844 94.593,286.562 93.373,286.438 93.373 C 286.315 93.373,286.121 92.628,286.007 91.717 C 285.893 90.806,285.698 90.060,285.573 90.060 C 285.447 90.060,285.177 89.148,284.972 88.034 C 284.766 86.919,284.486 85.869,284.350 85.699 C 284.213 85.530,283.942 84.615,283.747 83.665 C 283.553 82.715,283.279 81.867,283.138 81.781 C 282.998 81.694,282.792 81.082,282.680 80.420 C 282.569 79.758,282.375 79.217,282.251 79.217 C 282.126 79.217,281.845 78.471,281.627 77.560 C 281.408 76.649,281.130 75.904,281.010 75.904 C 280.889 75.904,280.701 75.429,280.592 74.849 C 280.483 74.270,280.291 73.795,280.164 73.795 C 280.037 73.795,279.759 73.117,279.547 72.289 C 279.335 71.461,279.038 70.783,278.888 70.783 C 278.737 70.783,278.614 70.548,278.614 70.260 C 278.614 69.731,277.136 66.544,276.759 66.262 C 276.646 66.178,276.456 65.703,276.335 65.208 C 276.215 64.712,275.866 63.947,275.558 63.508 C 275.251 63.068,275.000 62.560,275.000 62.378 C 275.000 62.197,274.886 62.048,274.746 62.048 C 274.607 62.048,274.331 61.506,274.132 60.843 C 273.933 60.181,273.652 59.639,273.506 59.639 C 273.360 59.639,273.149 59.223,273.038 58.715 C 272.926 58.206,272.656 57.722,272.439 57.639 C 272.221 57.555,271.957 57.146,271.852 56.730 C 271.748 56.313,271.530 55.815,271.369 55.622 C 270.743 54.873,269.578 52.971,269.578 52.697 C 269.578 52.539,269.468 52.410,269.333 52.410 C 269.198 52.410,268.860 51.969,268.583 51.431 C 268.306 50.892,267.402 49.503,266.575 48.343 C 265.749 47.184,264.900 45.976,264.690 45.661 C 264.479 45.345,263.867 44.621,263.328 44.053 C 262.790 43.485,262.349 42.917,262.349 42.790 C 262.349 42.663,261.977 42.149,261.521 41.648 C 261.066 41.147,260.083 40.018,259.337 39.140 C 257.762 37.285,251.530 31.028,249.817 29.583 C 249.172 29.039,248.117 28.124,247.473 27.550 C 246.829 26.976,246.204 26.506,246.086 26.506 C 245.968 26.506,245.532 26.201,245.117 25.828 C 244.702 25.456,244.060 24.947,243.690 24.699 C 243.319 24.450,242.737 24.010,242.396 23.720 C 242.054 23.430,241.681 23.193,241.566 23.193 C 241.383 23.193,240.957 22.877,239.565 21.710 C 239.376 21.552,239.158 21.485,239.081 21.562 C 239.004 21.638,238.770 21.495,238.560 21.242 C 238.351 20.990,237.993 20.783,237.764 20.783 C 237.536 20.783,237.349 20.681,237.349 20.555 C 237.349 20.430,236.909 20.136,236.370 19.902 C 235.832 19.668,235.324 19.396,235.241 19.298 C 234.979 18.989,231.785 17.470,231.396 17.470 C 231.192 17.470,231.024 17.366,231.024 17.240 C 231.024 16.962,228.491 15.760,227.334 15.490 C 226.879 15.383,226.506 15.201,226.506 15.085 C 226.506 14.968,225.829 14.699,225.001 14.487 C 224.173 14.275,223.424 13.986,223.337 13.845 C 223.250 13.704,222.570 13.498,221.827 13.386 C 221.083 13.275,220.406 13.072,220.321 12.936 C 220.237 12.799,219.154 12.517,217.915 12.309 C 216.676 12.101,215.663 11.835,215.663 11.719 C 215.663 11.602,214.680 11.409,213.479 11.290 C 212.278 11.170,211.203 10.927,211.091 10.749 C 210.883 10.420,195.285 10.175,191.877 10.447 M197.440 170.358 C 181.803 174.097,177.752 190.619,189.947 200.909 L 191.190 201.958 190.774 204.819 C 190.545 206.393,190.160 209.104,189.919 210.843 C 189.679 212.583,189.197 216.039,188.848 218.524 C 188.500 221.009,188.028 224.505,187.798 226.293 C 187.569 228.081,187.310 229.776,187.223 230.058 C 187.135 230.341,186.925 231.860,186.756 233.434 C 186.586 235.008,186.367 236.805,186.269 237.428 L 186.091 238.560 200.500 238.482 C 214.708 238.405,214.909 238.395,214.842 237.801 C 214.559 235.279,213.846 230.030,213.709 229.462 C 213.617 229.079,213.346 227.274,213.108 225.452 C 212.870 223.630,212.390 220.105,212.043 217.620 C 211.695 215.136,211.223 211.747,210.994 210.090 C 210.765 208.434,210.407 205.876,210.199 204.407 L 209.821 201.736 210.708 201.121 C 222.292 193.091,219.788 175.938,206.325 171.087 C 204.417 170.400,199.093 169.963,197.440 170.358 " stroke="none" fill="#2c3c43" fill-rule="evenodd"></path><path id="path3" d="M266.362 117.997 C 270.805 118.044,277.988 118.044,282.325 117.997 C 286.662 117.950,283.027 117.911,274.247 117.911 C 265.467 117.911,261.918 117.950,266.362 117.997 M197.967 170.087 C 198.257 170.163,198.731 170.163,199.021 170.087 C 199.311 170.011,199.074 169.949,198.494 169.949 C 197.914 169.949,197.677 170.011,197.967 170.087 M203.614 170.181 C 204.029 170.313,204.639 170.426,204.970 170.431 L 205.572 170.440 204.970 170.181 C 204.639 170.038,204.029 169.926,203.614 169.931 L 202.861 169.940 203.614 170.181 M210.843 172.939 C 210.926 173.011,211.943 173.940,213.102 175.005 L 215.211 176.941 213.554 175.195 C 212.643 174.235,211.627 173.306,211.295 173.130 C 210.964 172.954,210.761 172.868,210.843 172.939 M217.506 181.935 C 217.962 183.283,218.219 183.545,217.943 182.380 C 217.825 181.883,217.599 181.343,217.440 181.182 C 217.282 181.020,217.312 181.359,217.506 181.935 M218.472 187.199 C 218.474 188.358,218.528 188.796,218.593 188.171 C 218.659 187.546,218.657 186.597,218.591 186.063 C 218.524 185.528,218.471 186.039,218.472 187.199 M213.253 199.247 C 212.521 199.992,211.991 200.602,212.073 200.602 C 212.156 200.602,212.823 199.992,213.554 199.247 C 214.286 198.502,214.817 197.892,214.734 197.892 C 214.651 197.892,213.985 198.502,213.253 199.247 M190.733 202.711 C 190.733 203.291,190.795 203.528,190.870 203.238 C 190.946 202.948,190.946 202.474,190.870 202.184 C 190.795 201.894,190.733 202.131,190.733 202.711 M210.895 207.530 C 210.886 207.944,210.990 208.825,211.127 209.488 C 211.287 210.261,211.383 210.423,211.394 209.940 C 211.403 209.526,211.299 208.645,211.162 207.982 C 211.002 207.209,210.906 207.047,210.895 207.530 M211.950 215.512 C 212.234 218.029,212.638 219.399,212.439 217.169 C 212.343 216.092,212.155 214.940,212.022 214.608 C 211.881 214.256,211.851 214.632,211.950 215.512 M213.156 223.946 C 213.252 224.774,213.381 225.508,213.442 225.577 C 213.654 225.814,213.494 223.945,213.238 223.193 C 213.066 222.685,213.039 222.930,213.156 223.946 M214.192 231.350 C 214.212 231.916,214.338 232.786,214.473 233.283 C 214.635 233.877,214.661 233.568,214.550 232.380 C 214.365 230.388,214.136 229.729,214.192 231.350 " stroke="none" fill="#963e34" fill-rule="evenodd"></path><path id="path4" d="M200.226 170.097 C 200.764 170.164,201.645 170.164,202.184 170.097 C 202.722 170.031,202.282 169.976,201.205 169.976 C 200.128 169.976,199.688 170.031,200.226 170.097 M205.873 170.900 C 206.370 171.126,207.116 171.394,207.530 171.496 C 208.135 171.644,208.105 171.600,207.380 171.269 C 206.883 171.043,206.137 170.774,205.723 170.673 C 205.118 170.525,205.148 170.569,205.873 170.900 M210.090 172.790 C 210.860 173.519,212.751 174.752,212.294 174.227 C 212.016 173.907,211.338 173.388,210.788 173.075 C 210.239 172.761,209.925 172.633,210.090 172.790 M187.481 175.377 L 186.596 176.355 187.575 175.471 C 188.114 174.984,188.554 174.544,188.554 174.492 C 188.554 174.259,188.306 174.464,187.481 175.377 M213.864 176.074 C 214.439 176.747,215.221 177.696,215.601 178.182 C 215.981 178.668,215.893 178.456,215.407 177.711 C 214.920 176.965,214.138 176.017,213.670 175.602 C 212.980 174.992,213.016 175.081,213.864 176.074 M216.286 179.367 C 216.286 179.533,216.480 180.008,216.717 180.422 C 216.954 180.836,217.147 181.039,217.147 180.873 C 217.147 180.708,216.954 180.233,216.717 179.819 C 216.480 179.405,216.286 179.202,216.286 179.367 M217.513 182.380 C 217.515 182.545,217.708 183.630,217.942 184.789 L 218.366 186.898 218.220 185.194 C 218.099 183.783,217.497 181.389,217.513 182.380 M182.907 184.789 C 182.911 185.452,182.972 185.687,183.044 185.313 C 183.116 184.938,183.114 184.396,183.038 184.108 C 182.963 183.820,182.904 184.127,182.907 184.789 M218.148 188.404 C 218.152 189.066,218.213 189.302,218.285 188.927 C 218.357 188.553,218.355 188.010,218.279 187.722 C 218.204 187.434,218.145 187.741,218.148 188.404 M182.901 189.458 C 182.901 190.038,182.963 190.275,183.039 189.985 C 183.115 189.695,183.115 189.221,183.039 188.931 C 182.963 188.641,182.901 188.878,182.901 189.458 M217.808 190.211 C 217.783 190.542,217.693 191.152,217.608 191.566 L 217.453 192.319 217.776 191.580 C 217.953 191.174,218.043 190.564,217.976 190.225 C 217.856 189.624,217.852 189.624,217.808 190.211 M213.404 198.616 C 212.410 199.655,211.203 200.779,210.721 201.112 L 209.846 201.718 210.167 203.946 L 210.487 206.175 210.329 203.840 C 210.238 202.509,210.289 201.506,210.447 201.506 C 210.849 201.506,214.031 198.613,214.770 197.574 C 215.673 196.307,215.445 196.480,213.404 198.616 M190.431 206.024 C 190.431 206.604,190.493 206.841,190.569 206.551 C 190.645 206.261,190.645 205.787,190.569 205.497 C 190.493 205.207,190.431 205.444,190.431 206.024 M211.180 211.471 C 211.200 212.037,211.326 212.907,211.461 213.404 C 211.622 213.998,211.649 213.688,211.538 212.500 C 211.353 210.508,211.124 209.850,211.180 211.471 M189.528 212.651 C 189.528 213.230,189.590 213.468,189.665 213.178 C 189.741 212.888,189.741 212.413,189.665 212.123 C 189.590 211.834,189.528 212.071,189.528 212.651 M212.264 219.277 C 212.363 220.354,212.550 221.574,212.682 221.988 C 212.978 222.924,212.683 219.861,212.333 218.373 C 212.166 217.662,212.143 217.955,212.264 219.277 M188.297 220.934 C 188.268 221.431,188.175 222.176,188.090 222.590 L 187.935 223.343 188.259 222.601 C 188.437 222.193,188.530 221.447,188.466 220.944 L 188.349 220.030 188.297 220.934 M213.308 226.355 C 213.297 226.852,213.400 227.801,213.537 228.464 C 213.865 230.050,213.893 228.625,213.570 226.807 C 213.389 225.791,213.323 225.678,213.308 226.355 M187.224 228.338 C 187.111 229.192,187.079 229.950,187.153 230.024 C 187.227 230.098,187.383 229.464,187.500 228.614 C 187.617 227.765,187.649 227.006,187.571 226.928 C 187.493 226.851,187.337 227.485,187.224 228.338 M214.493 234.965 C 214.513 235.531,214.639 236.401,214.774 236.898 C 214.936 237.492,214.962 237.182,214.852 235.994 C 214.666 234.002,214.437 233.344,214.493 234.965 M186.190 235.881 C 186.165 236.316,186.077 237.129,185.995 237.688 L 185.845 238.705 186.163 237.694 C 186.337 237.138,186.425 236.325,186.357 235.887 L 186.235 235.090 186.190 235.881 " stroke="none" fill="#663e39" fill-rule="evenodd"></path></g></svg>